<?xml version="1.0" encoding="UTF-8"?><svg id="a" xmlns="http://www.w3.org/2000/svg" viewBox="0 0 60 60"><path d="M46.69,19.32c-.05-.28-.16-.52-.32-.74h0c-4.32-6.19-11.97-9.67-19.88-8.28-5.26,.93-9.84,3.85-12.91,8.22-1.9,2.72-3.07,5.8-3.47,9h-3.02l4.75,9.01,4.75-9.01h-2.9c1.04-6.79,6.29-12.49,13.42-13.75,.96-.17,1.92-.25,2.87-.25,5.43,0,10.43,2.7,13.47,7.01,.37,.61,1.08,.95,1.81,.82,.96-.17,1.6-1.08,1.43-2.04m-9.11,25.29c-1.47,.77-3.07,1.31-4.75,1.61-3.62,.64-7.27,.06-10.47-1.62V24.79h15.23v19.82Zm-4.03-22.17c0,.25-.17,.42-.42,.42h-6.39c-.25,0-.42-.17-.42-.42,0-.23,.19-.42,.42-.42h6.39c.25,0,.42,.17,.42,.42m19.35,10.02l-4.75-9.01-4.75,9.01h2.85c-.37,2.48-1.31,4.87-2.79,6.99-1.09,1.55-2.41,2.88-3.91,3.95V22.51c0-1.78-1.45-3.23-3.23-3.23h-12.7c-1.78,0-3.23,1.45-3.23,3.23v20.88c-1.49-1.07-2.77-2.35-3.81-3.8-.36-.64-1.09-1.01-1.85-.88-.96,.17-1.6,1.08-1.43,2.04,.05,.26,.14,.49,.28,.69h-.01c1.33,1.91,2.99,3.58,4.94,4.94,3.4,2.38,7.36,3.62,11.43,3.62,1.17,0,2.34-.1,3.52-.31,5.26-.93,9.84-3.85,12.91-8.22,1.91-2.72,3.08-5.8,3.47-9.01h3.08Z"/></svg>